# File created by Blade
# Date/Time:  Mon Sep 29 17:58:21 2014
# Frame Rate: 120.000 fps
#------------------------------------------------------
:FULLY-SPECIFIED
:DEGREES
2116
root -0.641338 2.605401 -7.017027 -29.051280 0.577615 -2.340889
Spine 18.687093 2.212216 9.041588
Head 5.506653 -7.342913 4.804452
LeftShoulder -14.573456 33.654934 17.660927
LeftArm 5.996008 27.921449 -63.220727
LeftForeArm -25.395938 -0.000000 74.275401
LeftHand -45.917709 -0.000000 39.300092
LeftHandThumb1 -26.253704 0.000000 33.147579
RightShoulder -18.642641 -2.871375 -26.097329
RightArm -42.736615 -11.162809 89.170172
RightForeArm -0.887516 -0.000000 15.353158
RightHand -13.117581 0.000000 -18.398492
RightHandThumb1 -24.326973 -0.000000 -32.862282
LeftUpLeg -64.763779 5.270967 0.787067
LeftLeg 13.438462 -0.000000 -0.000000
LeftFoot 29.643136 19.071474 -10.879299
LeftToeBase 15.215092 -0.000000 -0.000000
RightUpLeg -63.149347 -0.350598 18.380393
RightLeg 14.610929 -0.000000 -0.000000
RightFoot 33.090854 -16.598622 14.217129
RightToeBase 10.486245 -0.000000 -0.000000
2117
root -0.630340 2.606843 -7.009413 -29.267205 0.399627 -2.361019
Spine 18.615084 2.030528 9.204624
Head 5.891707 -7.277205 4.737541
LeftShoulder -14.581185 33.462286 17.456638
LeftArm 6.705086 27.209311 -62.642306
LeftForeArm -24.869938 -0.000000 74.802486
LeftHand -45.498513 0.000000 39.374111
LeftHandThumb1 -26.253704 0.000000 33.147579
RightShoulder -18.559161 -2.896608 -26.146758
RightArm -42.726422 -10.916427 89.282166
RightForeArm 0.157343 -0.000000 15.272715
RightHand -13.010854 -0.000000 -20.016706
RightHandThumb1 -24.326973 -0.000000 -32.862282
LeftUpLeg -64.688991 5.647868 0.498934
LeftLeg 13.623462 -0.000000 -0.000000
LeftFoot 30.158453 19.299519 -10.277162
LeftToeBase 15.666802 -0.000000 -0.000000
RightUpLeg -63.197801 -0.225374 18.350077
RightLeg 15.160981 -0.000000 -0.000000
RightFoot 33.187520 -15.978667 13.414105
RightToeBase 10.630719 -0.000000 -0.000000
2118
root -0.615925 2.604637 -7.007807 -29.456815 0.248945 -2.373149
Spine 18.543065 1.836049 9.329906
Head 6.211936 -7.173701 4.823278
LeftShoulder -14.699675 33.343834 17.224068
LeftArm 7.589665 26.564933 -61.995657
LeftForeArm -24.438860 -0.000000 75.366403
LeftHand -45.167680 -0.000000 39.461585
LeftHandThumb1 -26.253704 0.000000 33.147579
RightShoulder -18.444230 -2.858717 -26.268737
RightArm -42.725605 -10.453860 89.178940
RightForeArm 1.582968 0.000000 15.462274
RightHand -13.241254 -0.000000 -21.561984
RightHandThumb1 -24.326973 -0.000000 -32.862282
LeftUpLeg -64.584055 5.912596 0.339422
LeftLeg 13.716246 -0.000000 -0.000000
LeftFoot 30.670154 19.548760 -9.936667
LeftToeBase 16.460964 -0.000000 -0.000000
RightUpLeg -63.285863 -0.036605 18.185307
RightLeg 15.674959 -0.000000 -0.000000
RightFoot 33.645628 -15.287776 12.395361
RightToeBase 9.618552 -0.000000 -0.000000
2119
root -0.599008 2.603262 -7.011262 -29.621661 0.106044 -2.351770
Spine 18.436336 1.687963 9.438674
Head 6.593613 -7.125953 4.831386
LeftShoulder -14.689775 33.110010 17.040304
LeftArm 8.288373 26.021413 -61.392689
LeftForeArm -23.743644 -0.000000 75.975153
LeftHand -44.877691 0.000000 39.416006
LeftHandThumb1 -26.253704 0.000000 33.147579
RightShoulder -18.352055 -2.868992 -26.334405
RightArm -42.624293 -9.980058 89.099360
RightForeArm 1.970689 -0.000000 15.584016
RightHand -13.445681 -0.000000 -24.341479
RightHandThumb1 -24.326973 -0.000000 -32.862282
LeftUpLeg -64.380946 6.052409 0.365923
LeftLeg 13.634114 -0.000000 -0.000000
LeftFoot 31.120686 19.922574 -9.807076
LeftToeBase 16.495637 -0.000000 -0.000000
RightUpLeg -63.435949 0.232139 17.859752
RightLeg 16.292737 -0.000000 -0.000000
RightFoot 33.502354 -14.954414 12.021334
RightToeBase 10.150403 -0.000000 -0.000000
2120
root -0.585682 2.601868 -7.015810 -29.786458 -0.033699 -2.358509
Spine 18.332128 1.565680 9.543700
Head 6.946174 -7.084466 4.957503
LeftShoulder -14.617296 32.811175 16.976827
LeftArm 8.910333 25.565091 -60.924807
LeftForeArm -22.821428 -0.000000 76.550944
LeftHand -44.667431 -0.000000 39.406693
LeftHandThumb1 -26.253704 0.000000 33.147579
RightShoulder -18.257366 -2.807839 -26.388954
RightArm -42.652935 -9.736651 89.192562
RightForeArm 2.458711 -0.000000 15.808864
RightHand -13.648269 -0.000000 -27.314100
RightHandThumb1 -24.326973 -0.000000 -32.862282
LeftUpLeg -64.260982 6.319376 0.176358
LeftLeg 13.667758 -0.000000 -0.000000
LeftFoot 31.578843 19.725721 -9.570038
LeftToeBase 16.421865 -0.000000 -0.000000
RightUpLeg -63.599107 0.496526 17.576216
RightLeg 16.890605 -0.000000 -0.000000
RightFoot 33.836810 -14.510037 11.266888
RightToeBase 9.625877 -0.000000 -0.000000
2121
root -0.569055 2.601265 -7.021116 -29.943294 -0.200724 -2.342193
Spine 18.228599 1.437309 9.648806
Head 7.322148 -7.023379 5.098677
LeftShoulder -14.631002 32.609466 16.846447
LeftArm 9.609695 25.051669 -60.430668
LeftForeArm -22.012573 0.000000 77.142393
LeftHand -44.348721 -0.000000 38.695233
LeftHandThumb1 -26.253704 0.000000 33.147579
RightShoulder -18.164267 -2.733424 -26.493389
RightArm -42.565557 -9.530641 89.230512
RightForeArm 3.022448 -0.000000 15.898629
RightHand -13.744590 -0.000000 -30.221559
RightHandThumb1 -24.326973 -0.000000 -32.862282
LeftUpLeg -64.079634 6.606963 0.003309
LeftLeg 13.549133 -0.000000 -0.000000
LeftFoot 32.046604 19.468907 -9.483567
LeftToeBase 16.910858 -0.000000 -0.000000
RightUpLeg -63.811015 0.837088 17.209965
RightLeg 17.575596 -0.000000 -0.000000
RightFoot 33.953342 -14.223213 10.827616
RightToeBase 9.501118 -0.000000 -0.000000
